# xmcd
#
# Track frame offsets:
#	150
#	24438
#	48149
#	64868
#	91818
#	109865
#	129202
#	150556
#	169841
#	187974
#	209307
#
# Disc length: 3069 seconds
#
# Revision: 1
# Processed by: cddbd v1.5.2PL0 Copyright (c) Steve Scherf et al.
# Submitted via: EasyCDDAExtractor 16.0.6.1
#
DISCID=830bfb0b
DTITLE=Rory Block - Avalon: A Tribute to Mississippi John Hurt
DYEAR=2013
DGENRE=Blues
TTITLE0=Everybody Loves John
TTITLE1=Avalon
TTITLE2=Candy Man
TTITLE3=Frankie and Albert
TTITLE4=Got the Blues Can't Be Satisfied
TTITLE5=Louis Collins
TTITLE6=Richland Woman Blues
TTITLE7=Spike Driver Blues
TTITLE8=Stagolee
TTITLE9=Make Me a Pallet on Your Floor
TTITLE10=Pay Day
EXTD=
EXTT0=
EXTT1=
EXTT2=
EXTT3=
EXTT4=
EXTT5=
EXTT6=
EXTT7=
EXTT8=
EXTT9=
EXTT10=
PLAYORDER=
